<?xml version="1.0" encoding="utf-8"?>
<!-- Generator: Adobe Illustrator 20.1.0, SVG Export Plug-In . SVG Version: 6.00 Build 0)  -->
<svg version="1.1" id="Calque_1" xmlns="http://www.w3.org/2000/svg" xmlns:xlink="http://www.w3.org/1999/xlink" x="0px" y="0px"
	 viewBox="0 0 59 60.6" style="enable-background:new 0 0 59 60.6;" xml:space="preserve">
<style type="text/css">
	.st0{fill:#FFFFFF;}
</style>
<g>
	<g>
		<path class="st0" d="M3.2,6.3C1.4,6.3,0,4.9,0,3.2l0,0C0,1.4,1.4,0,3.2,0l0,0h52.7C57.6,0,59,1.4,59,3.2l0,0
			c0,1.7-1.4,3.2-3.2,3.2l0,0H3.2L3.2,6.3z"/>
	</g>
	<g>
		<path class="st0" d="M3.2,27.4C1.4,27.4,0,26,0,24.2l0,0c0-1.7,1.4-3.2,3.2-3.2l0,0h52.7c1.7,0,3.2,1.4,3.2,3.2l0,0
			c0,1.7-1.4,3.2-3.2,3.2l0,0L3.2,27.4L3.2,27.4z"/>
	</g>
	<g>
		<path class="st0" d="M3.2,48.5C1.4,48.5,0,47,0,45.3l0,0c0-1.7,1.4-3.2,3.2-3.2l0,0h52.7c1.7,0,3.2,1.4,3.2,3.2l0,0
			c0,1.7-1.4,3.2-3.2,3.2l0,0H3.2L3.2,48.5z"/>
	</g>
</g>
</svg>
